<svg width="25" height="24" viewBox="0 0 25 24" xmlns="http://www.w3.org/2000/svg">
<path d="M5.5 22C4.95 22 4.47916 21.8042 4.0875 21.4125C3.69583 21.0208 3.5 20.55 3.5 20V6C3.5 5.45 3.69583 4.97916 4.0875 4.5875C4.47916 4.19583 4.95 4 5.5 4H6.5V2H8.5V4H16.5V2H18.5V4H19.5C20.05 4 20.5208 4.19583 20.9125 4.5875C21.3042 4.97916 21.5 5.45 21.5 6V20C21.5 20.55 21.3042 21.0208 20.9125 21.4125C20.5208 21.8042 20.05 22 19.5 22H5.5ZM5.5 20H19.5V10H5.5V20ZM5.5 8H19.5V6H5.5V8Z" fill="currentColor"/>
</svg>
