<svg width="25" height="24" viewBox="0 0 25 24" xmlns="http://www.w3.org/2000/svg">
<g clip-path="url(#clip0_9_234)">
<path d="M8.35 21.125C6.61667 20.325 5.20833 19.1167 4.125 17.5C3.04167 15.8833 2.5 14.0583 2.5 12.025C2.5 11.5917 2.52083 11.1667 2.5625 10.75C2.60417 10.3333 2.675 9.925 2.775 9.525L1.625 10.2L0.625 8.475L5.4 5.725L8.15 10.475L6.4 11.475L5.05 9.125C4.86667 9.575 4.72917 10.0417 4.6375 10.525C4.54583 11.0083 4.5 11.5083 4.5 12.025C4.5 13.6417 4.94167 15.1125 5.825 16.4375C6.70833 17.7625 7.88333 18.7417 9.35 19.375L8.35 21.125ZM16 9V7H18.725C17.9583 6.05 17.0333 5.3125 15.95 4.7875C14.8667 4.2625 13.7167 4 12.5 4C11.5833 4 10.7167 4.14167 9.9 4.425C9.08333 4.70833 8.33333 5.10833 7.65 5.625L6.65 3.875C7.48333 3.29167 8.39167 2.83333 9.375 2.5C10.3583 2.16667 11.4 2 12.5 2C13.8167 2 15.075 2.24583 16.275 2.7375C17.475 3.22917 18.55 3.94167 19.5 4.875V3.5H21.5V9H16ZM15.35 24L10.575 21.25L13.325 16.5L15.05 17.5L13.625 19.95C15.5917 19.6667 17.2292 18.775 18.5375 17.275C19.8458 15.775 20.5 14.0167 20.5 12C20.5 11.8167 20.4958 11.6458 20.4875 11.4875C20.4792 11.3292 20.4583 11.1667 20.425 11H22.45C22.4667 11.1667 22.4792 11.3292 22.4875 11.4875C22.4958 11.6458 22.5 11.8167 22.5 12C22.5 14.25 21.8292 16.2625 20.4875 18.0375C19.1458 19.8125 17.4 21.0083 15.25 21.625L16.35 22.275L15.35 24Z" fill="currentColor"/>
</g>
<defs>
<clipPath id="clip0_9_234">
<rect width="24" height="24" fill="white" transform="translate(0.5)"/>
</clipPath>
</defs>
</svg>
