<svg width="25" height="24" viewBox="0 0 25 24" xmlns="http://www.w3.org/2000/svg">
<path d="M5.5 21C4.95 21 4.47917 20.8042 4.0875 20.4125C3.69583 20.0208 3.5 19.55 3.5 19V5.00001C3.5 4.45001 3.69583 3.97917 4.0875 3.58751C4.47917 3.19584 4.95 3.00001 5.5 3.00001H14.425L12.425 5.00001H5.5V19H19.5V12.05L21.5 10.05V19C21.5 19.55 21.3042 20.0208 20.9125 20.4125C20.5208 20.8042 20.05 21 19.5 21H5.5ZM9.5 15V10.75L18.675 1.57501C18.875 1.37501 19.1 1.22501 19.35 1.12501C19.6 1.02501 19.85 0.975006 20.1 0.975006C20.3667 0.975006 20.6208 1.02501 20.8625 1.12501C21.1042 1.22501 21.325 1.37501 21.525 1.57501L22.925 3.00001C23.1083 3.20001 23.25 3.42084 23.35 3.66251C23.45 3.90417 23.5 4.15001 23.5 4.40001C23.5 4.65001 23.4542 4.89584 23.3625 5.13751C23.2708 5.37917 23.125 5.60001 22.925 5.80001L13.75 15H9.5ZM11.5 13H12.9L18.7 7.20001L18 6.50001L17.275 5.80001L11.5 11.575V13Z" fill="currentColor"/>
</svg>
