<svg width="25" height="24" viewBox="0 0 25 24" xmlns="http://www.w3.org/2000/svg">
<path d="M7.97285 19.4634C9.9884 20.9425 12.2192 21.4943 14.6655 21.1189C17.1117 20.7434 19.0744 19.5479 20.5535 17.5323C21.293 16.5246 21.7943 15.4401 22.0571 14.279C22.3201 13.1179 22.3649 11.9724 22.1914 10.8424C22.018 9.71253 21.6317 8.63314 21.0326 7.60434C20.4335 6.57552 19.6301 5.69134 18.6224 4.95178C17.6147 4.21223 16.5302 3.71099 15.369 3.44806C14.2079 3.18513 13.0624 3.14038 11.9325 3.31382C10.8026 3.48725 9.7232 3.87352 8.69437 4.47258C7.66555 5.07166 6.78137 5.87507 6.04181 6.88282L5.92349 7.04406L5.65398 5.17177L3.67685 5.45736L4.48145 10.6993L9.72337 9.89468L9.4028 7.9229L7.55068 8.20719L7.65421 8.06611C8.79805 6.50745 10.3252 5.58151 12.2356 5.28827C14.146 4.99504 15.8805 5.42034 17.4391 6.56418C18.9977 7.70802 19.9237 9.23511 20.2169 11.1455C20.5102 13.0559 20.0849 14.7904 18.941 16.349C17.7838 17.8979 16.2533 18.8214 14.3496 19.1195C12.4459 19.4177 10.7148 18.9949 9.15611 17.851C8.39025 17.2889 7.77738 16.617 7.31755 15.835C6.85773 15.0531 6.55493 14.2262 6.40919 13.3544L4.41726 13.6601C4.60235 14.7882 4.99264 15.8551 5.58814 16.8606C6.18364 17.8661 6.97854 18.7337 7.97285 19.4634Z" fill="currentColor"/>
</svg>
