<svg width="25" height="24" viewBox="0 0 25 24" xmlns="http://www.w3.org/2000/svg">
<mask id="mask0_9_271" style="mask-type:alpha" maskUnits="userSpaceOnUse" x="0" y="0" width="25" height="24">
<rect x="0.5" width="24" height="24" fill="#D9D9D9"/>
</mask>
<g mask="url(#mask0_9_271)">
<path d="M14.75 21.4C14.3667 21.7833 13.8917 21.975 13.325 21.975C12.7583 21.975 12.2833 21.7833 11.9 21.4L3.1 12.6C2.91667 12.4167 2.77083 12.2 2.6625 11.95C2.55417 11.7 2.5 11.4333 2.5 11.15V4C2.5 3.45 2.69583 2.97917 3.0875 2.5875C3.47917 2.19583 3.95 2 4.5 2H11.65C11.9333 2 12.2 2.05417 12.45 2.1625C12.7 2.27083 12.9167 2.41667 13.1 2.6L21.9 11.425C22.2833 11.8083 22.475 12.2792 22.475 12.8375C22.475 13.3958 22.2833 13.8667 21.9 14.25L14.75 21.4ZM13.325 20L20.475 12.85L11.65 4H4.5V11.15L13.325 20ZM7 8C7.41667 8 7.77083 7.85417 8.0625 7.5625C8.35417 7.27083 8.5 6.91667 8.5 6.5C8.5 6.08333 8.35417 5.72917 8.0625 5.4375C7.77083 5.14583 7.41667 5 7 5C6.58333 5 6.22917 5.14583 5.9375 5.4375C5.64583 5.72917 5.5 6.08333 5.5 6.5C5.5 6.91667 5.64583 7.27083 5.9375 7.5625C6.22917 7.85417 6.58333 8 7 8Z" fill="currentColor"/>
</g>
</svg>
